#!OML:ASF E:\acrobat2\Project_11_07_03\Capture day 1\Session 1\Acrobat.ASF
:FULLY-SPECIFIED
:DEGREES
477
root 10.9773 2.57776 3.361 135.581 4.58478 -176.758
lowerback 18.8455 -0.988262 2.59908
upperback 14.0119 2.25027 -1.12315
thorax 4.74941 2.81898 -2.86019
lowerneck -0.710439 -0.401562 0.553894
upperneck 16.8115 -1.70322 0.0947036
head 5.16513 -1.25103 -0.182991
rclavicle -1.94809e-014 -3.97569e-015
rhumerus 6.15192 -5.94645 -101.842
rradius 13.2402
rwrist -8.88143
rhand -37.481 -63.6846
rfingers 7.12502
rthumb -10.5387 -626.6
lclavicle -1.94809e-014 -3.97569e-015
lhumerus 10.919 -30.0086 89.9423
lradius 12.9016
lwrist 32.6697
lhand -44.0166 -2.36499
lfingers 7.12502
lthumb -16.8372 26.925
rfemur -52.6966 -24.2006 -21.0326
rtibia 41.7225
rfoot 29.1315 -26.2714
rtoes 25.8077
lfemur -45.4299 31.9066 27.049
ltibia 35.2769
lfoot -10.0049 40.5817
ltoes 57.1372
478
root 10.9679 2.66492 3.25876 138.667 3.59403 -176.961
lowerback 19.8643 -1.15129 1.49195
upperback 13.9254 1.97886 -1.17863
thorax 4.09015 2.6216 -2.30434
lowerneck 0.101092 -0.451832 0.908611
upperneck 15.1857 -1.61119 -0.427536
head 5.03844 -1.17814 -0.413415
rclavicle -4.62174e-015 -3.18055e-015
rhumerus 4.19121 -1.58886 -101.216
rradius 13.1904
rwrist -13.0535
rhand -35.5021 -76.0801
rfingers 7.12502
rthumb -8.62932 -614.116
lclavicle -4.62174e-015 -3.18055e-015
lhumerus 8.80196 -29.9989 90.6975
lradius 13.0762
lwrist 33.4997
lhand -44.4533 -3.13872
lfingers 7.12502
lthumb -17.2575 26.115
rfemur -52.386 -24.2704 -22.945
rtibia 40.6862
rfoot 28.8022 -27.656
rtoes 28.2336
lfemur -44.912 29.5374 28.1175
ltibia 30.3255
lfoot -26.2138 35.5982
ltoes 59.7549
479
root 10.9533 2.75449 3.16726 142.046 2.35017 -177.764
lowerback 20.5617 -1.24713 0.104588
upperback 14.2514 1.88077 -1.47541
thorax 4.09624 2.58101 -1.83246
lowerneck -0.892382 -0.610816 1.03297
upperneck 14.3703 -1.63942 -0.59642
head 4.92913 -1.11975 -0.49021
rclavicle 9.85227e-015 -3.97569e-015
rhumerus 3.86431 -0.326735 -100.971
rradius 12.5726
rwrist -12.1367
rhand -32.2909 -79.8149
rfingers 7.12502
rthumb -5.52962 -610.277
lclavicle 9.85227e-015 -3.97569e-015
lhumerus 8.16981 -30.7876 90.7009
lradius 13.2687
lwrist 34.35
lhand -44.2555 -3.55477
lfingers 7.12502
lthumb -17.0671 25.7155
rfemur -52.0794 -24.2657 -25.948
rtibia 38.5642
rfoot 25.4553 -37.5415
rtoes 44.3322
lfemur -45.0065 27.4297 28.429
ltibia 26.1528
lfoot -29.654 28.1287
ltoes 59.879
480
root 10.9316 2.83452 3.06026 144.543 1.11088 -178.806
lowerback 22.1382 -1.37073 -1.23402
upperback 14.6244 1.83661 -1.76976
thorax 3.74932 2.62104 -1.42482
lowerneck -1.21084 -0.882568 0.413196
upperneck 13.273 -1.86734 -0.221993
head 4.59157 -1.18449 -0.250934
rclavicle -1.0635e-014 2.3059e-014
rhumerus 3.21325 -1.09739 -100.699
rradius 11.968
rwrist -8.71197
rhand -28.9822 -76.8735
rfingers 7.12502
rthumb -2.33451 -613.159
lclavicle -1.0635e-014 2.3059e-014
lhumerus 7.0162 -30.8929 91.3742
lradius 13.5815
lwrist 34.3845
lhand -43.9261 -3.57707
lfingers 7.12502
lthumb -16.75 25.7204
rfemur -50.7418 -23.6613 -29.8386
rtibia 34.3246
rfoot 29.4553 -42.0338
rtoes 35.2492
lfemur -44.927 25.4594 28.2307
ltibia 22.6483
lfoot -25.1403 27.0489
ltoes 60.0199
481
root 10.9086 2.91789 2.94768 146.562 0.483336 -179.59
lowerback 24.3195 -1.44953 -1.96771
upperback 14.844 1.90401 -1.9908
thorax 2.96835 2.76088 -1.33626
lowerneck -1.025 -1.23792 0.0448588
upperneck 12.0594 -2.2326 0.0292688
head 4.11901 -1.32388 -0.100825
rclavicle 1.05356e-014 -1.51076e-014
rhumerus 1.98342 -1.56977 -100.449
rradius 11.5029
rwrist -6.33712
rhand -28.5097 -73.6519
rfingers 7.12502
rthumb -1.87822 -616.377
lclavicle 1.05356e-014 -1.51076e-014
lhumerus 5.4581 -31.6312 92.1749
lradius 13.9293
lwrist 34.8736
lhand -43.6815 -2.21042
lfingers 7.12502
lthumb -16.5146 27.1068
rfemur -49.3692 -22.6154 -33.0252
rtibia 30.021
rfoot 20.4091 -44.7297
rtoes 45.5184
lfemur -43.9954 23.0984 29.2425
ltibia 19.258
lfoot -22.1709 26.9619
ltoes 58.1602
482
root 10.8699 3.00237 2.83402 148.904 0.859146 -177.736
lowerback 26.3733 -2.26442 0.699959
upperback 15.5532 1.92956 -1.84237
thorax 2.84023 3.18445 -2.74186
lowerneck -3.54905 -1.7305 0.845617
upperneck 11.2705 -2.73851 -0.0962835
head 4.32085 -1.45939 -0.324604
rclavicle -1.5704e-014 7.95139e-015
rhumerus 2.50459 -3.02115 -100.548
rradius 10.7186
rwrist -3.36734
rhand -31.4317 -72.8962
rfingers 7.12502
rthumb -4.69998 -617.176
lclavicle -1.5704e-014 7.95139e-015
lhumerus 6.06763 -35.1144 91.4384
lradius 14.0871
lwrist 36.9678
lhand -44.8684 -9.56648
lfingers 7.12502
lthumb -17.657 19.6518
rfemur -47.9522 -21.6353 -33.2162
rtibia 26.4359
rfoot 16.7923 -40.6556
rtoes 45.9246
lfemur -44.2438 21.4486 32.7687
ltibia 16.764
lfoot -24.7445 26.1877
ltoes 57.6554
483
root 10.8643 3.1074 2.73775 151.533 1.50397 -177.296
lowerback 28.1827 -2.3872 1.00461
upperback 15.5116 2.01101 -1.47579
thorax 1.9606 3.26709 -2.62276
lowerneck -2.72784 -1.76338 0.847278
upperneck 9.02736 -2.57116 -0.814979
head 3.35568 -1.36701 -0.513795
rclavicle 7.15625e-015 6.36111e-015
rhumerus 1.12833 -1.05175 -100.132
rradius 10.6094
rwrist -2.20814
rhand -35.2272 -71.496
rfingers 7.12502
rthumb -8.36401 -618.69
lclavicle 7.15625e-015 6.36111e-015
lhumerus 4.58392 -35.3204 92.5052
lradius 14.5499
lwrist 36.7245
lhand -46.384 -28.4386
lfingers 7.12502
lthumb -19.115 0.64211
rfemur -48.0157 -19.6653 -34.4333
rtibia 22.7713
rfoot 17.8419 -36.5304
rtoes 38.7953
lfemur -43.407 20.0062 36.0456
ltibia 14.0471
lfoot -33.6017 19.4102
ltoes 58.5375
484
root 10.8568 3.21277 2.6285 154.854 1.68496 -176.826
lowerback 29.2202 -2.51839 1.48705
upperback 15.4704 2.07534 -1.2631
thorax 1.45059 3.33543 -2.73452
lowerneck -3.18919 -2.06492 0.380006
upperneck 7.54624 -2.8817 -0.475724
head 2.94389 -1.48747 -0.322521
rclavicle 1.19271e-015 -7.55382e-015
rhumerus -0.170616 4.13847 -99.844
rradius 12.0876
rwrist -3.14945
rhand -37.0478 -81.593
rfingers 7.12502
rthumb -10.1208 -608.67
lclavicle 1.19271e-015 -7.55382e-015
lhumerus 3.71087 -37.4668 93.1383
lradius 15.8399
lwrist 35.4562
lhand -50.658 -38.5396
lfingers 7.12502
lthumb -23.2205 -9.91948
rfemur -47.8787 -17.8898 -36.7375
rtibia 20.5741
rfoot 13.0245 -36.1335
rtoes 32.5433
lfemur -43.3365 18.7143 39.3104
ltibia 11.4879
lfoot -39.1472 13.875
ltoes 58.1772
485
root 10.8436 3.34901 2.52054 158.013 1.55988 -176.819
lowerback 30.4735 -2.66946 1.39105
upperback 15.3896 1.97815 -1.1584
thorax 0.795033 3.28746 -2.6038
lowerneck -3.08731 -2.10672 -0.138256
upperneck 5.38427 -2.84417 -0.258545
head 2.21299 -1.44569 -0.13968
rclavicle -1.61016e-014 2.78299e-015
rhumerus -1.38154 9.08076 -99.8475
rradius 14.0837
rwrist -3.47117
rhand -37.2864 90.5834
rfingers 7.12502
rthumb -10.3509 -599.691
lclavicle -1.61016e-014 2.78299e-015
lhumerus 2.86344 -37.7394 93.9908
lradius 17.2537
lwrist 30.0787
lhand -54.6074 -42.3433
lfingers 7.12502
lthumb -27.0046 -14.2537
rfemur -47.0228 -15.5317 -40.2144
rtibia 17.5232
rfoot 1.63773 -39.1849
rtoes 39.4926
lfemur -42.5564 15.8895 43.1435
ltibia 8.14486
lfoot -43.9174 11.9144
ltoes 58.0206
486
root 10.8303 3.49581 2.4008 161.612 1.37929 -177.108
lowerback 31.0634 -2.69694 1.01787
upperback 15.2323 1.82908 -1.08446
thorax 0.341261 3.14859 -2.3035
lowerneck -2.61494 -2.01041 -0.674434
upperneck 2.84595 -2.66205 -0.128346
head 1.31875 -1.34227 0.0215737
rclavicle -1.55052e-014 1.66979e-014
rhumerus -1.66544 7.55963 -100.132
rradius 14.7166
rwrist 1.16255
rhand -35.6828 96.9699
rfingers 7.12502
rthumb -8.80372 -593.234
lclavicle -1.55052e-014 1.66979e-014
lhumerus 2.04911 -36.6081 94.9781
lradius 19.0661
lwrist 25.9684
lhand -56.2931 -50.1345
lfingers 7.12502
lthumb -28.6163 -22.3054
rfemur -46.5591 -13.8972 -43.8551
rtibia 14.8411
rfoot -9.19395 -40.3598
rtoes 45.4349
lfemur -41.9005 12.905 47.1855
ltibia 4.71607
lfoot -48.6812 9.79787
ltoes 57.7109
487
root 10.8227 3.65564 2.26993 165.464 1.23088 -177.344
lowerback 31.289 -2.67347 0.819423
upperback 15.0102 1.71108 -1.05178
thorax -0.0226826 3.01046 -2.14267
lowerneck -2.23655 -1.94923 -0.990085
upperneck 0.509102 -2.58199 -0.0384696
head 0.531043 -1.29774 0.121003
rclavicle 1.78906e-015 -6.75868e-015
rhumerus -2.07769 8.1037 -100.505
rradius 16.0605
rwrist 0.720241
rhand -36.5765 95.6391
rfingers 7.12502
rthumb -9.6661 -594.603
lclavicle 1.78906e-015 -6.75868e-015
lhumerus 2.42837 -30.7542 96.2679
lradius 18.833
lwrist 19.1965
lhand -57.6163 -48.2807
lfingers 7.12502
lthumb -29.8798 -20.6717
rfemur -46.1481 -12.2189 -47.8541
rtibia 11.7893
rfoot -16.2352 -41.6294
rtoes 48.7838
lfemur -41.3177 9.53096 51.8222
ltibia 1.10973
lfoot -53.2106 3.41011
ltoes 57.5585
488
root 10.818 3.82653 2.12723 169.272 1.08393 -177.801
lowerback 31.2472 -2.55851 0.497968
upperback 14.6836 1.59167 -1.11564
thorax -0.387813 2.84144 -2.01027
lowerneck -1.21198 -1.84745 -1.35776
upperneck -1.5986 -2.47843 0.252151
head -0.265487 -1.24555 0.292264
rclavicle 7.95139e-016 -2.78299e-015
rhumerus -2.84101 8.32795 -100.331
rradius 17.4812
rwrist -0.56604
rhand -36.5526 93.6584
rfingers 7.12502
rthumb -9.64298 -596.582
lclavicle 7.95139e-016 -2.78299e-015
lhumerus 1.86736 -32.4633 95.9228
lradius 19.6598
lwrist 23.189
lhand -57.0934 -55.7972
lfingers 7.12502
lthumb -29.3806 -28.0996
rfemur -45.5241 -10.161 -52.4688
rtibia 8.55452
rfoot -24.5667 -42.3244
rtoes 49.4559
lfemur -41.4443 11.6918 51.1222
ltibia -0.687345
lfoot -51.6965 1.78973
ltoes 57.6916
489
root 10.8061 4.03022 1.96248 172.295 0.566213 -178.604
lowerback 31.4709 -2.69529 -0.0994573
upperback 14.519 1.17971 -1.30284
thorax -0.682326 2.57197 -1.76708
lowerneck -0.025925 -1.62057 -1.94846
upperneck -2.94355 -2.20132 0.725926
head -0.864089 -1.10515 0.558836
rclavicle 1.98785e-015 4.17448e-015
rhumerus -3.26393 13.9436 -99.3009
rradius 18.775
rwrist -6.58311
rhand -35.7263 90.6535
rfingers 7.12502
rthumb -8.84572 -599.552
lclavicle 1.98785e-015 4.17448e-015
lhumerus 1.7743 -36.4678 94.2474
lradius 21.2078
lwrist 27.2089
lhand -56.986 -58.7907
lfingers 7.12502
lthumb -29.2781 -31.0751
rfemur -43.6885 -6.65721 -57.8841
rtibia 4.44424
rfoot -33.4761 -42.4805
rtoes 50.7735
lfemur -41.2634 12.7073 49.847
ltibia -2.76283
lfoot -50.2019 1.38481
ltoes 58.1385
490
root 10.8197 4.24123 1.80844 175.159 0.537594 -179.454
lowerback 31.1902 -2.52381 -1.10574
upperback 14.8177 1.21256 -1.42496
thorax -0.200852 2.56111 -1.3089
lowerneck -0.188965 -1.52506 -2.54974
upperneck -3.04741 -2.06164 1.33258
head -0.861291 -1.03548 0.845259
rclavicle 1.98785e-016 5.96354e-016
rhumerus -2.7125 21.6249 -97.5635
rradius 20.1729
rwrist -14.1934
rhand -37.3781 92.6434
rfingers 7.12502
rthumb -10.4394 -597.636
lclavicle 1.98785e-016 5.96354e-016
lhumerus 3.17976 -43.3296 90.9124
lradius 23.5994
lwrist 34.1157
lhand -56.8035 -67.8594
lfingers 7.12502
lthumb -29.1039 -40.1136
rfemur -42.4148 -0.603591 -64.6316
rtibia 0.138999
rfoot -44.6999 -40.4318
rtoes 52.8776
lfemur -40.2982 13.7936 48.8034
ltibia -5.00666
lfoot -49.5031 2.41669
ltoes 58.5126
